<svg xmlns="http://www.w3.org/2000/svg" viewBox="0 0 512 512" role="img" aria-label="Twitcharr plugin logo">
  <defs>
    <linearGradient id="panel" x1="82" y1="62" x2="430" y2="450" gradientUnits="userSpaceOnUse">
      <stop stop-color="#201a2c"/>
      <stop offset="1" stop-color="#111116"/>
    </linearGradient>
    <linearGradient id="brand" x1="122" y1="124" x2="390" y2="382" gradientUnits="userSpaceOnUse">
      <stop stop-color="#a86cff"/>
      <stop offset="1" stop-color="#6e38e8"/>
    </linearGradient>
  </defs>
  <rect width="512" height="512" rx="108" fill="#0e0e10"/>
  <path d="M98 78h336v260h-92l-62 62h-68v-62H98z" fill="#9146ff"/>
  <path d="M132 116h268v188H256l-54 54v-54h-70z" fill="#18181b"/>
  <path d="M172 154h130v38h-44v92h-42v-92h-44z" fill="#ffffff"/>
  <rect x="319" y="154" width="34" height="86" fill="#ffffff"/>
  <rect x="358" y="154" width="34" height="86" fill="#ffffff"/>
  <rect x="310" y="267" width="78" height="22" rx="11" fill="#00e5ff"/>
  <circle cx="408" cy="100" r="26" fill="#ff4f7b"/>
  <path d="M396 164c22 22 34 52 34 86" fill="none" stroke="#00e5ff" stroke-width="16" stroke-linecap="round"/>
</svg>
