<svg xmlns="http://www.w3.org/2000/svg" viewBox="0 0 360 640" role="img" aria-label="Twitcharr offline poster">
  <defs>
    <linearGradient id="bg" x1="32" y1="28" x2="328" y2="612" gradientUnits="userSpaceOnUse">
      <stop stop-color="#25143f"/>
      <stop offset="1" stop-color="#0e0e10"/>
    </linearGradient>
    <linearGradient id="brand" x1="64" y1="76" x2="296" y2="366" gradientUnits="userSpaceOnUse">
      <stop stop-color="#a86cff"/>
      <stop offset="1" stop-color="#6e38e8"/>
    </linearGradient>
  </defs>
  <rect width="360" height="640" fill="url(#bg)"/>
  <path d="M40 48h280v394h-74l-48 48h-58v-48H40z" fill="#9146ff"/>
  <path d="M64 76h232v326H180l-38 38v-38H64z" fill="#18181b"/>
  <rect x="64" y="76" width="232" height="56" fill="url(#brand)"/>
  <circle cx="96" cy="104" r="10" fill="#ff4f7b"/>
  <text x="118" y="112" fill="#ffffff" font-family="Arial, sans-serif" font-size="20" font-weight="700" letter-spacing="0">Twitcharr</text>
  <path d="M94 172h158v40h-56v116h-46V212H94z" fill="#ffffff"/>
  <rect x="221" y="172" width="32" height="94" fill="#ffffff"/>
  <rect x="258" y="172" width="32" height="94" fill="#ffffff"/>
  <path d="M268 292c15 17 23 37 23 60" fill="none" stroke="#00e5ff" stroke-width="13" stroke-linecap="round"/>
  <text x="180" y="530" text-anchor="middle" fill="#ffffff" font-family="Arial, sans-serif" font-size="46" font-weight="900" letter-spacing="0">OFFLINE</text>
  <text x="180" y="566" text-anchor="middle" fill="#b9b3c8" font-family="Arial, sans-serif" font-size="19" font-weight="700" letter-spacing="0">stream is away</text>
</svg>
