<svg xmlns="http://www.w3.org/2000/svg" viewBox="0 0 640 360" role="img" aria-label="Twitcharr offline card">
  <defs>
    <linearGradient id="bg" x1="60" y1="20" x2="580" y2="340" gradientUnits="userSpaceOnUse">
      <stop stop-color="#25143f"/>
      <stop offset="1" stop-color="#0e0e10"/>
    </linearGradient>
    <linearGradient id="bar" x1="74" y1="56" x2="566" y2="304" gradientUnits="userSpaceOnUse">
      <stop stop-color="#a86cff"/>
      <stop offset="1" stop-color="#6e38e8"/>
    </linearGradient>
  </defs>
  <rect width="640" height="360" fill="url(#bg)"/>
  <path d="M52 44h536v216h-92l-54 54h-68v-54H52z" fill="#9146ff"/>
  <path d="M76 68h488v168H352l-48 48v-48H76z" fill="#18181b"/>
  <rect x="76" y="68" width="488" height="44" fill="url(#bar)"/>
  <circle cx="106" cy="90" r="10" fill="#ff4f7b"/>
  <text x="130" y="98" fill="#ffffff" font-family="Arial, sans-serif" font-size="21" font-weight="700" letter-spacing="0">Twitcharr</text>
  <path d="M128 145h126v34h-42v78h-40v-78h-44z" fill="#ffffff"/>
  <rect x="276" y="145" width="30" height="78" fill="#ffffff"/>
  <rect x="314" y="145" width="30" height="78" fill="#ffffff"/>
  <text x="382" y="174" fill="#ffffff" font-family="Arial, sans-serif" font-size="48" font-weight="900" letter-spacing="0">OFFLINE</text>
  <text x="384" y="208" fill="#b9b3c8" font-family="Arial, sans-serif" font-size="22" font-weight="700" letter-spacing="0">stream is away</text>
  <rect x="384" y="226" width="136" height="12" rx="6" fill="#00e5ff"/>
  <path d="M520 126c19 20 29 46 29 75" fill="none" stroke="#00e5ff" stroke-width="16" stroke-linecap="round"/>
</svg>
