<svg xmlns="http://www.w3.org/2000/svg" width="640" height="360" viewBox="0 0 640 360" role="img" aria-label="Twitcharr offline">
  <defs>
    <linearGradient id="bg" x1="0" y1="0" x2="1" y2="1">
      <stop offset="0" stop-color="#15121f"/>
      <stop offset="0.52" stop-color="#24133d"/>
      <stop offset="1" stop-color="#0f2630"/>
    </linearGradient>
    <radialGradient id="glow" cx="50%" cy="40%" r="58%">
      <stop offset="0" stop-color="#8b5cf6" stop-opacity="0.38"/>
      <stop offset="0.55" stop-color="#14b8a6" stop-opacity="0.16"/>
      <stop offset="1" stop-color="#000000" stop-opacity="0"/>
    </radialGradient>
    <filter id="softShadow" x="-20%" y="-20%" width="140%" height="140%">
      <feDropShadow dx="0" dy="14" stdDeviation="18" flood-color="#000000" flood-opacity="0.35"/>
    </filter>
  </defs>
  <rect width="640" height="360" fill="url(#bg)"/>
  <rect width="640" height="360" fill="url(#glow)"/>
  <g opacity="0.2">
    <path d="M66 76h508M66 124h508M66 172h508M66 220h508M66 268h508" stroke="#ffffff" stroke-width="1"/>
    <path d="M112 40v280M208 40v280M304 40v280M400 40v280M496 40v280" stroke="#ffffff" stroke-width="1"/>
  </g>
  <g filter="url(#softShadow)">
    <rect x="138" y="72" width="364" height="216" rx="18" fill="#171827" stroke="#ffffff" stroke-opacity="0.16" stroke-width="2"/>
    <rect x="166" y="104" width="308" height="118" rx="12" fill="#0b1020" stroke="#8b5cf6" stroke-opacity="0.45"/>
    <path d="M246 141h148v44H246z" fill="#7c3aed"/>
    <path d="M273 141v-18h95v18" fill="none" stroke="#14b8a6" stroke-width="8" stroke-linecap="round"/>
    <circle cx="250" cy="248" r="9" fill="#14b8a6"/>
    <rect x="275" y="240" width="116" height="16" rx="8" fill="#ffffff" opacity="0.78"/>
  </g>
  <text x="320" y="162" text-anchor="middle" font-family="Inter, Segoe UI, Arial, sans-serif" font-size="34" font-weight="800" fill="#ffffff">OFFLINE</text>
  <text x="320" y="200" text-anchor="middle" font-family="Inter, Segoe UI, Arial, sans-serif" font-size="18" font-weight="600" fill="#c4b5fd">Streams appear here when they go live</text>
  <text x="320" y="320" text-anchor="middle" font-family="Inter, Segoe UI, Arial, sans-serif" font-size="18" font-weight="700" fill="#99f6e4">Twitcharr</text>
</svg>
